<?xml version="1.0" encoding="UTF-8" standalone="no"?>
<!-- Created with Inkscape (http://www.inkscape.org/) -->

<svg
   version="1.1"
   id="svg687"
   width="1736.7273"
   height="1213.0909"
   viewBox="0 0 1736.7273 1213.0909"
   sodipodi:docname="signature.svg"
   inkscape:version="1.2.2 (b0a8486541, 2022-12-01)"
   xmlns:inkscape="http://www.inkscape.org/namespaces/inkscape"
   xmlns:sodipodi="http://sodipodi.sourceforge.net/DTD/sodipodi-0.dtd"
   xmlns="http://www.w3.org/2000/svg"
   xmlns:svg="http://www.w3.org/2000/svg">
  <defs
     id="defs691" />
  <sodipodi:namedview
     id="namedview689"
     pagecolor="#ffffff"
     bordercolor="#000000"
     borderopacity="0.25"
     inkscape:showpageshadow="2"
     inkscape:pageopacity="0.0"
     inkscape:pagecheckerboard="0"
     inkscape:deskcolor="#d1d1d1"
     showgrid="false"
     inkscape:zoom="0.72377096"
     inkscape:cx="653.52166"
     inkscape:cy="606.54547"
     inkscape:window-width="1920"
     inkscape:window-height="1052"
     inkscape:window-x="0"
     inkscape:window-y="0"
     inkscape:window-maximized="1"
     inkscape:current-layer="g693" />
  <g
     inkscape:groupmode="layer"
     inkscape:label="Image"
     id="g693">
    <g
       id="g697"
       style="fill:#ffffff">
      <path
         style="display:inline;fill:#ffffff;fill-opacity:1;stroke-width:0.727273"
         d="m 322.82348,929.95127 c -11.43472,-4.28706 -18.5049,-16.89702 -22.90972,-40.86037 -1.09996,-5.984 -1.33962,-11.0744 -1.35257,-28.72727 -0.0162,-22.13004 0.47097,-28.97033 3.62596,-50.90909 4.20431,-29.23535 10.1497,-53.99622 22.05848,-91.86729 3.18384,-10.12491 3.47307,-11.55239 2.41316,-11.91032 -14.06606,-4.75006 -43.31878,-19.16675 -55.74969,-27.47524 -18.5462,-12.39579 -33.66078,-26.29505 -47.86971,-44.02063 -24.46817,-30.52392 -38.41343,-61.33471 -44.93147,-99.27197 -1.88557,-10.97469 -2.66843,-34.29427 -1.4565,-43.38632 4.50159,-33.77179 23.42874,-53.59872 48.80313,-51.12322 19.30673,1.88354 38.83852,12.65435 59.92939,33.0481 29.38477,28.41351 56.53423,70.31499 77.8994,120.22707 2.19427,5.12611 2.97359,6.29843 3.91036,5.8823 0.64347,-0.28583 2.38881,-0.66395 3.87855,-0.84025 2.27138,-0.2688 3.06192,0.0328 4.8974,1.86825 l 2.18879,2.18879 -0.41596,8.97673 c -0.5841,12.60536 0.41254,20.98278 3.92317,32.97673 1.63912,5.6 3.51127,12.10726 4.16033,14.46059 0.64907,2.35332 1.45139,3.98968 1.78295,3.63636 0.9537,-1.01631 5.66155,-14.10107 8.55927,-23.7892 2.60002,-8.69282 2.64469,-9.05313 2.46537,-19.88884 -0.14704,-8.88538 0.0406,-11.46733 0.96307,-13.25117 2.0543,-3.97258 5.86254,-4.8656 8.6903,-2.03784 1.47779,1.47779 1.72614,2.61421 2.10592,9.63637 0.98721,18.2531 9.42811,39.56985 17.55446,44.33221 5.77461,3.38415 10.72455,1.81889 18.34423,-5.8008 l 4.5017,-4.5017 -2.42301,-8.33117 c -10.81969,-37.2019 -13.80409,-91.22806 -6.82008,-123.46319 4.86467,-22.45318 12.52925,-33.54708 23.17712,-33.54708 12.4911,0 22.09865,15.28328 25.93867,41.26211 1.7364,11.74721 1.70521,38.30861 -0.0604,51.46517 -3.78749,28.2222 -11.58447,53.56033 -21.50767,69.89426 -1.94497,3.20148 -2.86746,5.4729 -2.6212,6.45408 0.69168,2.75587 7.72233,13.78027 10.83049,16.98272 3.83154,3.94777 6.21699,5.21439 9.82037,5.21439 9.3824,0 21.37492,-19.83673 28.14931,-46.5615 4.09213,-16.14337 4.17335,-16.86793 3.19062,-28.46299 -0.83116,-9.80661 -0.80256,-10.81501 0.35691,-12.58458 1.41474,-2.15916 3.72477,-3.25798 5.74084,-2.73077 2.72202,0.71183 3.51444,3.33631 4.14975,13.74413 0.67535,11.06354 3.05165,23.41485 7.02997,36.53971 3.12594,10.31274 7.25467,19.52916 8.2864,18.49743 2.05289,-2.05288 8.58905,-35.59564 10.24523,-52.57725 0.90536,-9.28299 1.70147,-11.24017 4.69242,-11.53583 4.36245,-0.43124 4.75435,0.87627 5.44948,18.18084 0.82501,20.53792 2.89202,32.97762 7.01906,42.242 1.03045,2.31316 2.2331,4.09088 2.67257,3.95048 1.36487,-0.43601 4.71423,-7.15821 6.60045,-13.24712 4.26405,-13.76488 8.09048,-40.31726 7.25516,-50.34512 -0.43724,-5.24907 -0.33064,-6.26613 0.78606,-7.50008 1.55276,-1.71578 4.89048,-1.86325 6.46797,-0.28576 1.26547,1.26547 1.27717,1.31046 3.01036,11.5855 4.1818,24.79126 14.84275,49.40607 22.83151,52.71512 1.86965,0.77443 2.59878,0.68154 5.43765,-0.69273 6.10457,-2.95517 12.39296,-13.43529 18.778,-31.29512 3.0556,-8.5469 3.27708,-9.68061 3.70123,-18.94562 0.81818,-17.87228 4.96621,-36.15483 9.24131,-40.73134 1.46087,-1.56387 2.67173,-2.14122 4.49072,-2.14122 7.23975,0 7.52353,7.71664 1.29718,35.27273 -2.5579,11.32056 -2.55859,15.48047 -0.004,25.46796 2.39926,9.38105 5.33779,14.30529 16.04992,26.89568 7.74185,9.09931 9.40169,11.71818 9.39847,14.82876 -0.004,3.59521 -2.37998,7.20535 -5.64957,8.58312 -3.263,1.37501 -16.26483,0.98142 -28.96965,-0.87697 -11.28922,-1.65131 -12.91023,-2.19997 -17.46786,-5.91221 l -4.07155,-3.31631 -2.99178,1.3468 c -4.66105,2.09825 -10.95253,1.80533 -15.24416,-0.70973 -6.44274,-3.7757 -12.94811,-14.16655 -18.04394,-28.82107 l -2.39156,-6.8776 -1.90848,11.60487 c -2.12184,12.9023 -4.18541,20.42576 -7.28857,26.57309 -4.88739,9.68185 -13.27962,11.90239 -19.76426,5.2295 -2.81482,-2.89654 -6.06973,-9.14668 -6.82568,-13.1068 -0.48951,-2.56513 -1.74371,-3.24596 -1.74371,-0.94663 0,0.77935 -0.8348,4.05962 -1.85512,7.28948 -3.12882,9.90448 -8.10215,13.77878 -14.53419,11.32237 -5.93697,-2.26735 -10.79794,-10.20108 -14.56656,-23.77448 -1.03837,-3.73991 -2.05605,-7.29074 -2.26151,-7.89074 -0.20546,-0.6 -1.48179,2.93055 -2.83629,7.84566 -6.55748,23.79534 -14.89617,37.94625 -25.4108,43.12258 -4.18564,2.06058 -5.16483,2.258 -9.9526,2.00654 -3.66565,-0.19253 -6.43638,-0.82066 -8.94657,-2.02821 -4.67222,-2.24762 -12.37626,-10.07975 -15.63636,-15.89632 -4.28013,-7.63648 -3.5816,-7.34034 -8.2825,-3.5114 -5.37884,4.38113 -10.46811,6.92327 -15.7079,7.84623 -8.18987,1.44262 -18.05285,-2.87679 -24.20674,-10.60115 -2.73823,-3.43703 -8.53014,-14.53561 -8.53014,-16.34564 0,-0.44106 -0.32727,-0.80193 -0.72727,-0.80193 -0.4,0 -0.72727,0.4719 -0.72727,1.04867 0,2.67989 -5.54448,18.98836 -8.73629,25.69682 l -3.55544,7.47275 2.48235,14.77032 c 3.70661,22.05483 4.78413,33.61072 5.2312,56.10235 0.5831,29.33513 -1.32117,52.63826 -6.32936,77.45455 -9.82259,48.67222 -32.10974,90.53491 -53.65387,100.77992 -4.70614,2.23789 -11.78291,2.9376 -15.52421,1.53499 z m 13.6896,-13.29462 c 10.57952,-7.2864 21.825,-24.15266 30.2594,-45.38393 8.27649,-20.83374 13.17954,-42.21425 16.26111,-70.90909 1.53589,-14.30182 1.76677,-55.80538 0.38234,-68.72727 -2.25982,-21.09239 -6.8071,-46.89011 -9.56398,-54.25853 -0.76871,-2.05455 -2.07109,-7.29597 -2.89418,-11.6476 C 370.13467,661.3786 368.11234,653.4 366.46371,648 c -1.64864,-5.4 -3.16007,-10.38723 -3.35875,-11.08273 -0.19868,-0.69551 -0.66266,-1.07826 -1.03108,-0.85056 -2.08846,1.29074 -18.37998,36.52078 -24.28958,52.52566 -2.49784,6.76486 -2.68384,7.7393 -1.89408,9.92333 1.06883,2.9558 0.17031,5.38775 -2.57125,6.95933 -1.52416,0.87371 -2.38867,2.74102 -4.70443,10.16133 -13.53574,43.37229 -20.15178,79.12152 -22.56335,121.91934 -2.01591,35.77593 3.91513,68.72575 14.22692,79.03753 4.74395,4.744 9.41256,4.76218 16.23497,0.0633 z m -3.01121,-227.02029 c 4.96185,-13.89253 11.83468,-31.25212 18.51847,-46.7745 l 7.24431,-16.82413 -4.0951,-10.65523 c -7.63997,-19.87875 -20.62169,-48.12693 -28.45959,-61.92796 -17.25816,-30.38827 -30.7009,-48.7597 -49.2358,-67.28777 C 263.7778,472.47546 255.61739,466.20267 244,460.43565 c -8.99323,-4.46434 -15.01641,-6.11738 -22.54545,-6.1875 -8.45846,-0.0788 -12.70676,1.58888 -18.19367,7.14185 -9.8316,9.94997 -14.01779,25.03185 -13.22531,47.64777 0.75115,21.43683 5.61224,43.55166 14.47923,65.87132 14.45828,36.39379 45.06333,73.45866 79.12157,95.82178 6.33542,4.15993 45.64988,24.54185 47.33849,24.54185 0.28267,0 1.41982,-2.53636 2.52701,-5.63636 z m 336.53729,-40.64521 c 0.25486,-0.25486 -1.54814,-2.79123 -4.00668,-5.63636 -5.21864,-6.03927 -9.34312,-12.21066 -11.23464,-16.81021 -0.7388,-1.79652 -1.50692,-3.25303 -1.70692,-3.23668 -0.2,0.0164 -1.83636,3.19388 -3.63636,7.06118 -1.8,3.86729 -4.97503,9.41408 -7.05562,12.32618 -4.13972,5.79418 -4.2216,5.20546 0.8738,6.28296 2.38349,0.50403 26.26378,0.51556 26.76642,0.013 z M 463.31913,624.3396 c 10.256,-25.10981 15.85838,-58.16408 15.0126,-88.57499 -0.43065,-15.48452 -1.65029,-23.4886 -4.87834,-32.01496 -1.80402,-4.76502 -6.90807,-10.65874 -9.23063,-10.65874 -2.54396,0 -5.21211,2.81112 -7.81344,8.23214 -8.63557,17.99598 -10.99323,51.70407 -6.22023,88.93249 2.52277,19.67707 7.93275,43.5499 9.51139,41.97126 0.36927,-0.36927 1.99766,-3.91851 3.61865,-7.8872 z m 340.68088,191.24919 c -7.21505,-1.58021 -18.60414,-7.38916 -24.8944,-12.69738 -9.69556,-8.18196 -19.29011,-21.81382 -25.96109,-36.8856 -20.5368,-46.39861 -23.41847,-121.77468 -7.5976,-198.73309 12.55738,-61.08376 35.90364,-111.5492 68.63666,-148.36555 23.39331,-26.31161 50.22967,-43.48655 76.97331,-49.26204 8.64872,-1.86776 25.7664,-1.67835 33.27469,0.3682 24.01411,6.54555 43.20967,25.81041 55.29564,55.49536 11.3381,27.848 18.37287,69.53189 13.36792,79.21036 -2.64196,5.10911 -7.96683,6.56658 -11.89985,3.25714 -2.81244,-2.36646 -3.51215,-4.79967 -4.07157,-14.15801 -1.23869,-20.72295 -8.73258,-50.0149 -17.41578,-68.07439 -14.05673,-29.2355 -34.15891,-42.62169 -59.46887,-39.60083 -21.08822,2.51699 -41.3032,13.15644 -61.51928,32.37862 -32.32232,30.73318 -57.58247,80.81476 -70.992,140.75114 -12.01825,53.71764 -13.87236,108.5504 -5.23818,154.90909 7.19447,38.62851 22.71484,67.86829 40.75724,76.78538 4.90414,2.42371 6.40364,2.80997 11.90916,3.06764 13.26786,0.6208 26.81586,-5.50778 43.67869,-19.75869 14.38626,-12.15782 36.51339,-39.43942 49.83659,-61.44585 8.85076,-14.61918 13.81585,-26.05237 17.19782,-39.60168 3.02821,-12.13213 3.53854,-13.59225 4.75076,-13.59225 1.27302,0 2.21971,2.34649 3.60662,8.93969 1.41978,6.74914 1.30785,12.10848 -0.40175,19.23931 -5.8688,24.47997 -26.52007,58.77307 -54.80545,91.00914 -17.21302,19.61717 -30.45782,29.48975 -47.01928,35.04764 -8.50247,2.85345 -19.68051,3.53876 -28,1.71665 z m 409.45459,-66.11992 c -43.9608,-8.16269 -68.2325,-64.60221 -66.312,-154.19615 0.5537,-25.82972 2.2742,-41.29112 7.5262,-67.63636 6.6261,-33.23732 18.8698,-65.32708 33.0218,-86.54685 6.6577,-9.98265 16.9963,-20.57372 25.4003,-26.02065 26.2084,-16.98643 53.6269,-12.14027 72.0828,12.74039 8.0218,10.81448 16.1889,30.39868 19.49,46.7362 3.1799,15.73787 3.9009,42.45596 1.2546,46.49465 -2.6243,4.00533 -8.1192,3.88001 -10.2362,-0.23345 -0.5723,-1.11209 -1.1772,-5.81116 -1.4612,-11.35211 -1.4601,-28.48289 -4.6546,-42.92031 -13.5173,-61.09091 -6.8549,-14.05384 -14.1829,-22.32051 -23.9763,-27.04719 -7.8705,-3.79858 -19.2424,-3.01686 -29.488,2.02703 -31.8842,15.69654 -55.9216,71.75262 -62.1861,145.02016 -1.0794,12.62417 -1.0653,41.83596 0.026,54.90909 4.4588,53.39427 17.6923,88.27581 38.6227,101.80373 6.8233,4.41016 13.2589,6.19394 22.1159,6.12987 22.4101,-0.16211 46.7534,-14.87659 73.2682,-44.28753 6.6825,-7.41252 18.0045,-21.55442 18.0045,-22.48893 0,-0.22416 -1.8818,-0.21633 -4.1818,0.0174 -2.905,0.2952 -5.1812,0.073 -7.4546,-0.72784 -1.8,-0.63405 -3.4585,-1.15757 -3.6856,-1.16339 -0.2272,-0.006 -1.5031,2.62964 -2.8354,5.85659 -1.4659,3.55072 -3.6397,7.21174 -5.5056,9.27273 -2.803,3.09607 -3.3811,3.40555 -6.3611,3.40555 -2.1709,0 -3.7808,-0.45524 -4.7674,-1.34814 -2.7321,-2.47246 -2.6049,-4.78736 0.8525,-15.52461 5.2405,-16.27506 7.5664,-27.01245 8.0816,-37.30907 1.7605,-35.18963 5.9767,-48.72727 15.1754,-48.72727 4.9384,0 7.6912,2.78745 8.7998,8.91055 0.7438,4.10764 -1.9455,23.67077 -6.2498,45.46441 -1.4162,7.17065 -1.5041,8.62286 -0.7041,11.63636 1.1277,4.24868 2.3539,5.58803 4.5928,5.01667 5.673,-1.4478 13.1659,-12.30704 24.9218,-36.1189 6.6882,-13.54699 8.6481,-18.22195 9.4519,-22.54545 2.663,-14.32357 8.2174,-21.50584 15.1508,-19.59142 3.1415,0.86741 5.0867,3.63872 5.0178,7.14904 -0.028,1.44331 -1.0481,5.33362 -2.2661,8.64513 -5.9363,16.13881 -0.9685,29.61319 19.3254,52.41682 12.5559,14.10876 14.8402,17.92856 14.8075,24.76168 -0.043,9.01789 -8.2101,16.837 -20.2523,19.38947 -5.6772,1.20335 -17.4131,1.3449 -24.0953,0.29063 -8.5737,-1.35269 -18.4946,-5.18379 -23.866,-9.21616 -1.3262,-0.99565 -2.5196,-1.6954 -2.6519,-1.55501 -0.1323,0.1404 -3.094,4.17128 -6.5814,8.95752 -19.8606,27.25719 -44.3802,50.06699 -64.7189,60.20582 -14.6146,7.28546 -30.2318,9.95891 -43.6364,7.46989 z m 161.0909,-84.0728 c 1.8,-0.4126 4.0124,-1.23253 4.9166,-1.82207 1.532,-0.99896 1.5716,-1.20646 0.583,-3.05022 -0.5834,-1.08808 -3.871,-5.08742 -7.3058,-8.88742 -3.4348,-3.8 -8.016,-9.2 -10.1804,-12 -4.4688,-5.78098 -11.2862,-16.83376 -11.2862,-18.2979 0,-4.47699 -4.826,5.4682 -6.2203,12.81856 -0.9047,4.76884 -3.1122,12.17583 -5.0237,16.8557 -0.4184,1.0244 0.052,1.17978 3.3027,1.09091 2.0984,-0.0574 3.9114,0.23909 4.0613,0.66413 0.1488,0.42228 -1.8626,2.47733 -4.4701,4.56679 -2.6074,2.08946 -4.7408,4.09039 -4.7408,4.44651 0,0.9949 6.7242,3.00224 12.1888,3.63867 7.2638,0.84597 20.4373,0.83308 24.1749,-0.0236 z m 118.417,56.94688 c -8.5476,-5.63724 -13.3039,-24.41489 -11.5168,-45.46799 1.4914,-17.56983 4.8937,-33.09501 9.4593,-43.1642 1.1933,-2.63181 1.9987,-5.06175 1.7897,-5.39987 -0.6457,-1.04484 -12.8388,-8.77278 -13.2278,-8.38376 -0.2017,0.20167 -0.6462,5.70057 -0.9877,12.21977 -1.6757,31.98219 -4.938,42.04459 -13.6705,42.16511 -3.7699,0.052 -6.8943,-1.74526 -9.4229,-5.42036 -2.4418,-3.54905 -5.3974,-10.27686 -6.6221,-15.07347 -0.4595,-1.8 -1.0065,-3.76364 -1.2156,-4.36364 -0.214,-0.61401 -1.1578,1.13461 -2.1589,4 -4.6194,13.22062 -9.9832,20.88611 -15.3146,21.88628 -6.2727,1.17677 -11.5384,-2.02228 -13.6814,-8.31173 -4.5745,-13.42527 6.119,-53.03136 17.7561,-65.76418 10.641,-11.6429 20.6335,-6.23346 25.204,13.64418 1.6116,7.0087 1.7484,20.60875 0.2671,26.54545 -0.549,2.2 -0.9155,4.65455 -0.8146,5.45455 0.3138,2.48647 3.7382,12.44731 4.7595,13.84398 0.9354,1.27918 0.9975,1.27641 1.7145,-0.0765 1.661,-3.1341 5.106,-25.72538 6.3788,-41.82922 0.4318,-5.4626 0.307,-6.60906 -0.9971,-9.16538 -2.2813,-4.47159 -3.2198,-11.32904 -2.3651,-17.28052 0.8452,-5.88594 2.582,-8.67363 5.5937,-8.9789 4.7534,-0.4818 6.0259,2.92908 6.0782,16.29328 l 0.032,8.07943 2.96,3.36276 c 1.628,1.84952 5.9644,5.30728 9.6364,7.68392 8.817,5.70668 10.4639,7.29233 11.1092,10.69588 0.3013,1.58949 -0.014,9.03071 -0.7217,17.00768 -1.4048,15.84447 -2.3602,41.67575 -1.6465,44.51935 0.2557,1.01877 1.0847,2.01439 1.8423,2.21251 1.0829,0.28317 1.7845,2.06259 3.2808,8.31982 1.0467,4.37778 1.896,9.2457 1.8872,10.8176 -0.023,4.03694 -2.3328,8.71271 -4.9817,10.08249 -2.9351,1.51781 -7.9817,1.44297 -10.4035,-0.15427 z m -61.3466,-62.08769 c 2.4207,-2.87678 5.5149,-9.0295 7.6262,-15.16436 2.005,-5.82638 5.1061,-19.24514 5.1149,-22.13402 0,-1.17371 0.7089,-3.58468 1.5672,-5.35772 1.5208,-3.14164 1.5292,-3.32337 0.3265,-7.13871 -0.6788,-2.15325 -1.528,-3.915 -1.8872,-3.915 -0.8689,0 -3.8396,4.01445 -5.6701,7.66211 -5.6249,11.20888 -12.0736,38.691 -10.7431,45.78329 0.5901,3.14519 1.2043,3.1895 3.6656,0.26441 z m -539.01647,2.74436 c -8.82327,-2.89405 -15.04822,-10.18854 -19.16473,-22.45743 l -1.94829,-5.80671 -0.47272,2.95623 c -0.78175,4.88854 -5.27382,6.83519 -8.26349,3.58101 -1.35375,-1.47352 -1.55753,-2.93907 -2.04757,-14.72727 -0.29927,-7.2 -0.64727,-12.76364 -0.77338,-12.36364 -0.12604,0.4 -1.09476,4.65455 -2.15258,9.45455 -4.58,20.78145 -10.00175,31.9919 -17.29702,35.7644 -3.19535,1.65241 -8.49847,0.94859 -11.7944,-1.56535 -3.51069,-2.67773 -7.03586,-10.13982 -8.65615,-18.32365 -1.79898,-9.08581 -1.82341,-9.11336 -3.43665,-3.8754 -2.11818,6.87704 -5.6864,9.88782 -8.44698,7.12727 -2.1984,-2.19841 -0.82328,-13.96812 5.29367,-45.30909 3.33265,-17.07505 4.22575,-20.56917 5.53011,-21.63636 2.11084,-1.72706 4.04305,-1.59925 6.04196,0.39962 1.62648,1.62646 1.68458,2.16024 2.11826,19.45454 0.48131,19.19174 1.23156,27.52627 3.49934,38.87311 1.53469,7.6788 4.34284,14.90909 5.79055,14.90909 3.13658,0 11.00211,-13.88681 15.21694,-26.86584 3.47615,-10.70449 5.81826,-23.50168 5.81826,-31.79099 0,-8.24634 0.90494,-10.43408 4.31585,-10.43408 2.40597,0 3.32895,0.94752 4.6792,4.8037 l 0.99186,2.83267 1.08734,-2.5743 c 1.47535,-3.49301 3.19353,-5.06207 5.54313,-5.06207 5.14029,0 6.70764,3.78939 8.83993,21.37224 2.49818,20.59983 5.82327,32.9074 11.0032,40.72766 3.45018,5.20881 8.03171,6.8778 15.22044,5.54455 9.06603,-1.68144 17.41178,-7.5155 22.03403,-15.40271 1.90524,-3.25105 1.91644,-3.34727 0.71455,-6.13593 -0.83346,-1.93382 -1.32393,-5.62099 -1.54524,-11.61626 -0.26836,-7.26899 -0.0611,-9.82332 1.20146,-14.81657 3.87112,-15.3082 10.13578,-22.58207 19.4488,-22.58207 4.78952,0 10.54058,3.40402 13.80131,8.169 3.08363,4.50615 5.5837,12.15492 5.6789,17.37392 0.0669,3.67854 -0.17701,4.4378 -2.05992,6.40603 -1.62669,1.70042 -2.77397,2.23287 -4.81098,2.23287 -4.86182,0 -7.14684,-2.98107 -8.36197,-10.90909 -0.52247,-3.4085 -2.65607,-8.28273 -3.98516,-9.10418 -3.2936,-2.03556 -7.78509,12.58564 -6.9232,22.53694 0.49963,5.76831 2.79098,11.3695 5.91236,14.45295 4.41447,4.3608 8.99317,5.49464 15.47898,3.83306 9.68633,-2.48153 17.58931,-8.46585 21.9848,-16.64735 2.32088,-4.32005 2.45208,-4.98143 2.88364,-14.53703 0.41687,-9.2313 0.58749,-10.1552 2.19069,-11.86169 1.36553,-1.45357 2.32851,-1.80803 4.48829,-1.65209 2.47833,0.17894 2.88185,-0.0501 4.08805,-2.32013 2.8122,-5.29227 9.5425,-7.33518 15.6957,-4.76423 5.8324,2.43696 11.6781,11.06422 13.9644,20.60919 1.584,6.61294 1.5553,18.7747 -0.059,24.9091 -2.0561,7.81419 -5.9824,15.14261 -10.5715,19.73171 -5.8695,5.86944 -11.1671,7.14611 -17.3113,4.17178 -5.87132,-2.84224 -9.77532,-10.4359 -11.32921,-22.03617 l -0.87164,-6.50768 -2.64451,3.60254 c -3.36043,4.57781 -10.18,11.09523 -14.40982,13.77142 -5.18458,3.28026 -12.08007,5.41548 -17.54494,5.43288 -5.41338,0.0172 -9.26917,-1.1204 -13.67157,-4.03376 -1.6472,-1.09007 -3.10174,-1.85222 -3.23229,-1.69369 -0.13061,0.15854 -1.18756,2.06179 -2.34887,4.22945 -4.1616,7.76811 -13.18611,15.01423 -23.39025,18.78088 -6.03128,2.22631 -16.36539,2.89874 -21.03084,1.36845 z M 1012.8602,631.0373 c 4.968,-7.33781 7.2061,-17.44933 5.9514,-26.88764 -0.8061,-6.06409 -3.7261,-12.522 -6.6027,-14.6026 -1.7256,-1.24815 -2.5005,-1.34277 -6.1818,-0.75485 -3.1693,0.50614 -4.141,0.94043 -3.934,1.75816 0.1511,0.5973 0.5519,5.99508 0.8905,11.99508 0.6702,11.87585 1.5546,18.70966 3.2919,25.43755 2.0895,8.0914 2.9151,8.47436 6.5847,3.0543 z M 825.01856,538.59811 c -3.63462,-1.58224 -5.58233,-5.53614 -5.96255,-12.10407 -0.25425,-4.39243 -0.5488,-5.56689 -1.32182,-5.27027 -1.9573,0.75108 -1.84989,-1.92173 0.19884,-4.94738 3.08247,-4.55244 5.38407,-5.95236 10.38036,-6.31376 8.40873,-0.60823 14.61411,4.36542 15.17833,12.1656 0.35498,4.90803 -1.22196,8.64442 -5.42022,12.84268 -4.39818,4.39822 -8.59985,5.56578 -13.05294,3.6272 z m 6.14451,-16.62121 c -1,-1.8685 -1.52669,-1.1365 -0.92044,1.27911 0.34567,1.37732 0.67047,1.68957 1.07556,1.0341 0.3192,-0.51646 0.24939,-1.5574 -0.15512,-2.31321 z M 584.08749,486.06994 c -5.15497,-2.62594 -8.70097,-10.60064 -7.86232,-17.68179 0.50616,-4.27368 4.01046,-10.94271 6.4873,-12.34598 6.07991,-3.44459 18.04472,8.58789 17.99884,18.10062 -0.0208,4.31209 -2.12569,8.84806 -5.0831,10.95393 -3.0967,2.20504 -8.26667,2.64102 -11.54072,0.97322 z m 2.02229,-17.83327 c -2.16777,-4.23004 -2.68477,-2.24162 -0.55437,2.13218 1.06702,2.19067 1.76883,3.00493 1.92329,2.23145 0.13376,-0.66983 -0.48225,-2.63347 -1.36892,-4.36363 z"
         id="path699"
         inkscape:label="path699" />
    </g>
  </g>
</svg>
