<?xml version="1.0" encoding="UTF-8" standalone="no"?>
<!-- Generated by IcoMoon.io -->

<svg
   version="1.1"
   width="248"
   height="448"
   viewBox="0 0 248 448"
   id="svg5"
   sodipodi:docname="angle-right.svg"
   inkscape:version="1.2.2 (b0a8486541, 2022-12-01)"
   xmlns:inkscape="http://www.inkscape.org/namespaces/inkscape"
   xmlns:sodipodi="http://sodipodi.sourceforge.net/DTD/sodipodi-0.dtd"
   xmlns="http://www.w3.org/2000/svg"
   xmlns:svg="http://www.w3.org/2000/svg">
  <defs
     id="defs9" />
  <sodipodi:namedview
     id="namedview7"
     pagecolor="#505050"
     bordercolor="#eeeeee"
     borderopacity="1"
     inkscape:showpageshadow="0"
     inkscape:pageopacity="0"
     inkscape:pagecheckerboard="0"
     inkscape:deskcolor="#505050"
     showgrid="false"
     inkscape:zoom="1.9241071"
     inkscape:cx="104.46404"
     inkscape:cy="224"
     inkscape:window-width="1920"
     inkscape:window-height="1012"
     inkscape:window-x="1080"
     inkscape:window-y="0"
     inkscape:window-maximized="1"
     inkscape:current-layer="svg5" />
  <g
     id="icomoon-ignore" />
  <path
     fill="#000"
     d="M148.75 240c0 2-1 4.25-2.5 5.75l-116.5 116.5c-1.5 1.5-3.75 2.5-5.75 2.5s-4.25-1-5.75-2.5l-12.5-12.5c-1.5-1.5-2.5-3.75-2.5-5.75s1-4.25 2.5-5.75l98.25-98.25-98.25-98.25c-1.5-1.5-2.5-3.75-2.5-5.75s1-4.25 2.5-5.75l12.5-12.5c1.5-1.5 3.75-2.5 5.75-2.5s4.25 1 5.75 2.5l116.5 116.5c1.5 1.5 2.5 3.75 2.5 5.75zM244.75 240c0 2-1 4.25-2.5 5.75l-116.5 116.5c-1.5 1.5-3.75 2.5-5.75 2.5s-4.25-1-5.75-2.5l-12.5-12.5c-1.5-1.5-2.5-3.75-2.5-5.75s1-4.25 2.5-5.75l98.25-98.25-98.25-98.25c-1.5-1.5-2.5-3.75-2.5-5.75s1-4.25 2.5-5.75l12.5-12.5c1.5-1.5 3.75-2.5 5.75-2.5s4.25 1 5.75 2.5l116.5 116.5c1.5 1.5 2.5 3.75 2.5 5.75z"
     id="path3"
     style="fill:#ffffff" />
</svg>
