<?xml version="1.0" encoding="UTF-8"?>
<svg id="jcc" xmlns="http://www.w3.org/2000/svg" viewBox="0 0 374.49 337.47">
  <path id="c" d="M217.31,83.29v92.97c0,12.26,9.93,22.19,22.18,22.19h25.86v-.04h81.83c15.08,0,27.31,12.22,27.31,27.3v5.24c0,15.08-12.23,27.3-27.31,27.3h-81.83v.05h-35.58c-40.71,0-73.72-33-73.72-73.72v-109.61C156.05,34.26,189.06,1.26,229.77,1.26h117.41c15.08,0,27.31,12.22,27.31,27.3v5.24c0,15.08-12.23,27.31-27.31,27.31h-107.69c-12.25,0-22.18,9.93-22.18,22.18Z" style="fill: #03aba9;"/>
  <path id="j" d="M139.18,41.36v153.24c0,52.04,3.37,82.02-13.49,109.78-19.52,32.14-85.82,33.09-85.82,33.09h-12.56c-15.08,0-27.31-12.22-27.31-27.3v-5.24c0-15.08,12.23-27.3,27.31-27.3h24.86c15,0,27.16-12.17,27.16-27.17V61.11h-3.02c-15.08,0-27.31-12.23-27.31-27.31v-5.24c0-15.08,8.31-23.8,27.31-27.3,15.42-2.84,35.57,0,35.57,0,19.23,1.95,24.5,9.61,26.84,22.31h0v.03c.02.5.22,7.01.46,17.76Z" style="fill: #03aba9;"/>
  <g id="dot">
    <path d="M265.27,334.61c-15.38,0-27.89-12.51-27.89-27.89s12.51-27.89,27.89-27.89,27.89,12.51,27.89,27.89-12.51,27.89-27.89,27.89Z" style="fill: #fff;"/>
    <path d="M265.27,281.33c14,0,25.39,11.39,25.39,25.39s-11.39,25.39-25.39,25.39-25.39-11.39-25.39-25.39,11.39-25.39,25.39-25.39M265.27,276.33c-16.78,0-30.39,13.61-30.39,30.39s13.61,30.39,30.39,30.39,30.39-13.61,30.39-30.39-13.61-30.39-30.39-30.39h0Z" style="fill: #03aba9;"/>
  </g>
</svg>